<?xml version="1.0" standalone="no"?>
<!DOCTYPE svg PUBLIC "-//W3C//DTD SVG 20010904//EN"
 "http://www.w3.org/TR/2001/REC-SVG-20010904/DTD/svg10.dtd">
<svg version="1.0" xmlns="http://www.w3.org/2000/svg"
 width="260.000000pt" height="260.000000pt" viewBox="0 0 260.000000 260.000000"
 preserveAspectRatio="xMidYMid meet">
<metadata>
Created by potrace 1.14, written by Peter Selinger 2001-2017
</metadata>
<g transform="translate(0.000000,260.000000) scale(0.100000,-0.100000)"
fill="#000000" stroke="none">
<path d="M1178 2395 c-2 -1 -28 -5 -58 -9 -207 -23 -411 -139 -513 -293 -62
-94 -88 -176 -93 -293 -8 -231 81 -381 296 -497 82 -44 180 -76 435 -144 253
-67 354 -104 423 -157 98 -74 127 -132 127 -252 0 -69 -4 -94 -24 -133 -45
-91 -133 -162 -255 -204 -168 -57 -384 -44 -544 32 -124 59 -225 180 -240 288
l-5 37 -140 0 -140 0 6 -47 c16 -132 83 -266 183 -366 147 -147 340 -218 609
-223 163 -3 266 11 393 55 155 53 259 125 335 234 78 112 117 244 111 385 -13
318 -221 488 -744 608 -205 46 -371 112 -452 177 -76 61 -110 179 -80 281 49
173 225 276 472 276 148 0 264 -35 356 -107 73 -57 133 -170 143 -265 1 -4 62
-7 136 -7 l135 1 0 35 c0 53 -28 150 -62 218 -101 199 -301 328 -565 365 -68
9 -236 13 -245 5z"/>
</g>
</svg>
